<mxfile host="app.diagrams.net" agent="Mozilla/5.0 (Windows NT 10.0; Win64; x64; rv:138.0) Gecko/20100101 Firefox/138.0" version="27.0.4">
  <diagram name="Page-1" id="6F2gSgB4_4hjHcqgnxPE">
    <mxGraphModel dx="1365" dy="736" grid="1" gridSize="10" guides="1" tooltips="1" connect="1" arrows="1" fold="1" page="1" pageScale="1" pageWidth="1920" pageHeight="1200" math="0" shadow="0">
      <root>
        <mxCell id="0" />
        <mxCell id="1" parent="0" />
        <mxCell id="E3rHKkRZnnSpwDpxA04P-1" value="crm_cust_info" style="swimlane;fontStyle=0;childLayout=stackLayout;horizontal=1;startSize=30;horizontalStack=0;resizeParent=1;resizeParentMax=0;resizeLast=0;collapsible=1;marginBottom=0;whiteSpace=wrap;html=1;rounded=1;fillColor=#1ba1e2;fontColor=#ffffff;strokeColor=#006EAF;fontSize=25;" vertex="1" parent="1">
          <mxGeometry x="525" y="530" width="210" height="130" as="geometry" />
        </mxCell>
        <mxCell id="E3rHKkRZnnSpwDpxA04P-2" value="cst_id" style="text;strokeColor=none;fillColor=none;align=left;verticalAlign=middle;spacingLeft=4;spacingRight=4;overflow=hidden;points=[[0,0.5],[1,0.5]];portConstraint=eastwest;rotatable=0;whiteSpace=wrap;html=1;fontSize=25;" vertex="1" parent="E3rHKkRZnnSpwDpxA04P-1">
          <mxGeometry y="30" width="210" height="40" as="geometry" />
        </mxCell>
        <mxCell id="E3rHKkRZnnSpwDpxA04P-20" value="cst_key" style="text;strokeColor=none;fillColor=none;align=left;verticalAlign=middle;spacingLeft=4;spacingRight=4;overflow=hidden;points=[[0,0.5],[1,0.5]];portConstraint=eastwest;rotatable=0;whiteSpace=wrap;html=1;fontSize=25;" vertex="1" parent="E3rHKkRZnnSpwDpxA04P-1">
          <mxGeometry y="70" width="210" height="60" as="geometry" />
        </mxCell>
        <mxCell id="E3rHKkRZnnSpwDpxA04P-5" value="Customer Information" style="text;html=1;align=center;verticalAlign=middle;whiteSpace=wrap;rounded=0;fontSize=19;" vertex="1" parent="1">
          <mxGeometry x="535" y="500" width="190" height="30" as="geometry" />
        </mxCell>
        <mxCell id="E3rHKkRZnnSpwDpxA04P-6" value="crm_prd_info" style="swimlane;fontStyle=0;childLayout=stackLayout;horizontal=1;startSize=30;horizontalStack=0;resizeParent=1;resizeParentMax=0;resizeLast=0;collapsible=1;marginBottom=0;whiteSpace=wrap;html=1;rounded=1;fillColor=#1ba1e2;fontColor=#ffffff;strokeColor=#006EAF;fontSize=25;" vertex="1" parent="1">
          <mxGeometry x="520" y="291" width="210" height="90" as="geometry" />
        </mxCell>
        <mxCell id="E3rHKkRZnnSpwDpxA04P-7" value="&lt;div&gt;prd_key&lt;/div&gt;" style="text;strokeColor=none;fillColor=none;align=left;verticalAlign=middle;spacingLeft=4;spacingRight=4;overflow=hidden;points=[[0,0.5],[1,0.5]];portConstraint=eastwest;rotatable=0;whiteSpace=wrap;html=1;fontSize=25;" vertex="1" parent="E3rHKkRZnnSpwDpxA04P-6">
          <mxGeometry y="30" width="210" height="60" as="geometry" />
        </mxCell>
        <mxCell id="E3rHKkRZnnSpwDpxA04P-8" value="Current &amp;amp; History Product Information" style="text;html=1;align=center;verticalAlign=middle;whiteSpace=wrap;rounded=0;fontSize=19;" vertex="1" parent="1">
          <mxGeometry x="455" y="261" width="340" height="30" as="geometry" />
        </mxCell>
        <mxCell id="E3rHKkRZnnSpwDpxA04P-9" value="crm_sales_details" style="swimlane;fontStyle=0;childLayout=stackLayout;horizontal=1;startSize=30;horizontalStack=0;resizeParent=1;resizeParentMax=0;resizeLast=0;collapsible=1;marginBottom=0;whiteSpace=wrap;html=1;rounded=1;fillColor=#1ba1e2;fontColor=#ffffff;strokeColor=#006EAF;fontSize=25;" vertex="1" parent="1">
          <mxGeometry x="35" y="390" width="280" height="120" as="geometry" />
        </mxCell>
        <mxCell id="E3rHKkRZnnSpwDpxA04P-10" value="prd_key" style="text;strokeColor=none;fillColor=none;align=left;verticalAlign=middle;spacingLeft=4;spacingRight=4;overflow=hidden;points=[[0,0.5],[1,0.5]];portConstraint=eastwest;rotatable=0;whiteSpace=wrap;html=1;fontSize=25;" vertex="1" parent="E3rHKkRZnnSpwDpxA04P-9">
          <mxGeometry y="30" width="280" height="40" as="geometry" />
        </mxCell>
        <mxCell id="E3rHKkRZnnSpwDpxA04P-13" value="cst_id" style="text;strokeColor=none;fillColor=none;align=left;verticalAlign=middle;spacingLeft=4;spacingRight=4;overflow=hidden;points=[[0,0.5],[1,0.5]];portConstraint=eastwest;rotatable=0;whiteSpace=wrap;html=1;fontSize=25;" vertex="1" parent="E3rHKkRZnnSpwDpxA04P-9">
          <mxGeometry y="70" width="280" height="50" as="geometry" />
        </mxCell>
        <mxCell id="E3rHKkRZnnSpwDpxA04P-11" value="Transactional Records about Sales &amp;amp; Orders" style="text;html=1;align=center;verticalAlign=middle;whiteSpace=wrap;rounded=0;fontSize=19;" vertex="1" parent="1">
          <mxGeometry x="30" y="345" width="290" height="45" as="geometry" />
        </mxCell>
        <mxCell id="E3rHKkRZnnSpwDpxA04P-14" style="edgeStyle=orthogonalEdgeStyle;rounded=0;orthogonalLoop=1;jettySize=auto;html=1;" edge="1" parent="1" source="E3rHKkRZnnSpwDpxA04P-10" target="E3rHKkRZnnSpwDpxA04P-7">
          <mxGeometry relative="1" as="geometry" />
        </mxCell>
        <mxCell id="E3rHKkRZnnSpwDpxA04P-15" style="edgeStyle=orthogonalEdgeStyle;rounded=0;orthogonalLoop=1;jettySize=auto;html=1;entryX=0;entryY=0.5;entryDx=0;entryDy=0;" edge="1" parent="1" source="E3rHKkRZnnSpwDpxA04P-13" target="E3rHKkRZnnSpwDpxA04P-2">
          <mxGeometry relative="1" as="geometry" />
        </mxCell>
        <mxCell id="E3rHKkRZnnSpwDpxA04P-16" value="erp_cust_az12" style="swimlane;fontStyle=0;childLayout=stackLayout;horizontal=1;startSize=30;horizontalStack=0;resizeParent=1;resizeParentMax=0;resizeLast=0;collapsible=1;marginBottom=0;whiteSpace=wrap;html=1;rounded=1;fillColor=#e3c800;strokeColor=#B09500;fontSize=25;fontColor=#000000;" vertex="1" parent="1">
          <mxGeometry x="1125" y="470" width="210" height="80" as="geometry" />
        </mxCell>
        <mxCell id="E3rHKkRZnnSpwDpxA04P-17" value="cid" style="text;strokeColor=none;fillColor=none;align=left;verticalAlign=middle;spacingLeft=4;spacingRight=4;overflow=hidden;points=[[0,0.5],[1,0.5]];portConstraint=eastwest;rotatable=0;whiteSpace=wrap;html=1;fontSize=25;" vertex="1" parent="E3rHKkRZnnSpwDpxA04P-16">
          <mxGeometry y="30" width="210" height="50" as="geometry" />
        </mxCell>
        <mxCell id="E3rHKkRZnnSpwDpxA04P-18" value="Extra Customer Information (Birthdate)" style="text;html=1;align=center;verticalAlign=middle;whiteSpace=wrap;rounded=0;fontSize=19;" vertex="1" parent="1">
          <mxGeometry x="1060" y="440" width="340" height="30" as="geometry" />
        </mxCell>
        <mxCell id="E3rHKkRZnnSpwDpxA04P-21" style="edgeStyle=orthogonalEdgeStyle;rounded=0;orthogonalLoop=1;jettySize=auto;html=1;" edge="1" parent="1" source="E3rHKkRZnnSpwDpxA04P-17" target="E3rHKkRZnnSpwDpxA04P-20">
          <mxGeometry relative="1" as="geometry" />
        </mxCell>
        <mxCell id="E3rHKkRZnnSpwDpxA04P-25" value="erp_loc_a101" style="swimlane;fontStyle=0;childLayout=stackLayout;horizontal=1;startSize=30;horizontalStack=0;resizeParent=1;resizeParentMax=0;resizeLast=0;collapsible=1;marginBottom=0;whiteSpace=wrap;html=1;rounded=1;fillColor=#e3c800;strokeColor=#B09500;fontSize=25;fontColor=#000000;" vertex="1" parent="1">
          <mxGeometry x="1125" y="670" width="210" height="80" as="geometry" />
        </mxCell>
        <mxCell id="E3rHKkRZnnSpwDpxA04P-26" value="cid" style="text;strokeColor=none;fillColor=none;align=left;verticalAlign=middle;spacingLeft=4;spacingRight=4;overflow=hidden;points=[[0,0.5],[1,0.5]];portConstraint=eastwest;rotatable=0;whiteSpace=wrap;html=1;fontSize=25;" vertex="1" parent="E3rHKkRZnnSpwDpxA04P-25">
          <mxGeometry y="30" width="210" height="50" as="geometry" />
        </mxCell>
        <mxCell id="E3rHKkRZnnSpwDpxA04P-27" value="Location of Customers (Country)" style="text;html=1;align=center;verticalAlign=middle;whiteSpace=wrap;rounded=0;fontSize=19;" vertex="1" parent="1">
          <mxGeometry x="1060" y="640" width="340" height="30" as="geometry" />
        </mxCell>
        <mxCell id="E3rHKkRZnnSpwDpxA04P-29" style="edgeStyle=orthogonalEdgeStyle;rounded=0;orthogonalLoop=1;jettySize=auto;html=1;entryX=1;entryY=0.5;entryDx=0;entryDy=0;" edge="1" parent="1" source="E3rHKkRZnnSpwDpxA04P-26" target="E3rHKkRZnnSpwDpxA04P-20">
          <mxGeometry relative="1" as="geometry" />
        </mxCell>
        <mxCell id="E3rHKkRZnnSpwDpxA04P-30" value="erp_px_cat_g1v2" style="swimlane;fontStyle=0;childLayout=stackLayout;horizontal=1;startSize=30;horizontalStack=0;resizeParent=1;resizeParentMax=0;resizeLast=0;collapsible=1;marginBottom=0;whiteSpace=wrap;html=1;rounded=1;fillColor=#e3c800;strokeColor=#B09500;fontSize=25;fontColor=#000000;" vertex="1" parent="1">
          <mxGeometry x="1060" y="296" width="270" height="80" as="geometry" />
        </mxCell>
        <mxCell id="E3rHKkRZnnSpwDpxA04P-31" value="id" style="text;strokeColor=none;fillColor=none;align=left;verticalAlign=middle;spacingLeft=4;spacingRight=4;overflow=hidden;points=[[0,0.5],[1,0.5]];portConstraint=eastwest;rotatable=0;whiteSpace=wrap;html=1;fontSize=25;" vertex="1" parent="E3rHKkRZnnSpwDpxA04P-30">
          <mxGeometry y="30" width="270" height="50" as="geometry" />
        </mxCell>
        <mxCell id="E3rHKkRZnnSpwDpxA04P-32" value="&lt;div&gt;Product Categories&lt;/div&gt;" style="text;html=1;align=center;verticalAlign=middle;whiteSpace=wrap;rounded=0;fontSize=19;" vertex="1" parent="1">
          <mxGeometry x="1020" y="266" width="340" height="30" as="geometry" />
        </mxCell>
        <mxCell id="E3rHKkRZnnSpwDpxA04P-34" style="edgeStyle=orthogonalEdgeStyle;rounded=0;orthogonalLoop=1;jettySize=auto;html=1;entryX=1;entryY=0.5;entryDx=0;entryDy=0;" edge="1" parent="1" source="E3rHKkRZnnSpwDpxA04P-31" target="E3rHKkRZnnSpwDpxA04P-7">
          <mxGeometry relative="1" as="geometry" />
        </mxCell>
        <mxCell id="E3rHKkRZnnSpwDpxA04P-37" value="" style="rounded=1;whiteSpace=wrap;html=1;arcSize=3;fillColor=none;dashed=1;" vertex="1" parent="1">
          <mxGeometry x="20" y="260" width="790" height="530" as="geometry" />
        </mxCell>
        <mxCell id="E3rHKkRZnnSpwDpxA04P-38" value="CRM" style="rounded=1;whiteSpace=wrap;html=1;fontSize=35;fontStyle=1;fillColor=#0050ef;fontColor=#ffffff;strokeColor=#001DBC;" vertex="1" parent="1">
          <mxGeometry x="280" y="190" width="250" height="50" as="geometry" />
        </mxCell>
        <mxCell id="E3rHKkRZnnSpwDpxA04P-40" value="" style="rounded=1;whiteSpace=wrap;html=1;arcSize=3;fillColor=none;dashed=1;" vertex="1" parent="1">
          <mxGeometry x="880" y="260" width="665" height="530" as="geometry" />
        </mxCell>
        <mxCell id="E3rHKkRZnnSpwDpxA04P-39" value="&lt;font style=&quot;font-size: 28px;&quot;&gt;Integration Model&lt;/font&gt; (how the tables are related)" style="text;html=1;align=center;verticalAlign=middle;whiteSpace=wrap;rounded=0;" vertex="1" parent="1">
          <mxGeometry x="80" y="10" width="380" height="30" as="geometry" />
        </mxCell>
        <mxCell id="E3rHKkRZnnSpwDpxA04P-41" value="ERP" style="rounded=1;whiteSpace=wrap;html=1;fontSize=35;fontStyle=1;fillColor=#e3c800;strokeColor=#B09500;fontColor=#000000;" vertex="1" parent="1">
          <mxGeometry x="1065" y="194" width="250" height="50" as="geometry" />
        </mxCell>
        <mxCell id="E3rHKkRZnnSpwDpxA04P-43" value="PRODUCT" style="text;html=1;strokeColor=#F8CECC;fillColor=#B85450;align=center;verticalAlign=middle;whiteSpace=wrap;overflow=hidden;fontSize=20;fontStyle=1" vertex="1" parent="1">
          <mxGeometry x="1059" y="365" width="272" height="30" as="geometry" />
        </mxCell>
        <mxCell id="E3rHKkRZnnSpwDpxA04P-45" value="CUSTOMER" style="text;html=1;strokeColor=#82b366;fillColor=#d5e8d4;align=center;verticalAlign=middle;whiteSpace=wrap;overflow=hidden;fontSize=20;fontStyle=1" vertex="1" parent="1">
          <mxGeometry x="525" y="648" width="210" height="30" as="geometry" />
        </mxCell>
        <mxCell id="E3rHKkRZnnSpwDpxA04P-47" value="CUSTOMER" style="text;html=1;strokeColor=#82b366;fillColor=#d5e8d4;align=center;verticalAlign=middle;whiteSpace=wrap;overflow=hidden;fontSize=20;fontStyle=1" vertex="1" parent="1">
          <mxGeometry x="1125" y="740" width="210" height="30" as="geometry" />
        </mxCell>
        <mxCell id="E3rHKkRZnnSpwDpxA04P-48" value="CUSTOMER" style="text;html=1;strokeColor=#82b366;fillColor=#d5e8d4;align=center;verticalAlign=middle;whiteSpace=wrap;overflow=hidden;fontSize=20;fontStyle=1" vertex="1" parent="1">
          <mxGeometry x="1125" y="541" width="210" height="30" as="geometry" />
        </mxCell>
        <mxCell id="E3rHKkRZnnSpwDpxA04P-49" value="PRODUCT" style="text;html=1;strokeColor=#F8CECC;fillColor=#B85450;align=center;verticalAlign=middle;whiteSpace=wrap;overflow=hidden;fontSize=20;fontStyle=1" vertex="1" parent="1">
          <mxGeometry x="519" y="371" width="212" height="30" as="geometry" />
        </mxCell>
        <mxCell id="E3rHKkRZnnSpwDpxA04P-50" value="SALES" style="text;html=1;strokeColor=#E1D5E7;fillColor=#9673A6;align=center;verticalAlign=middle;whiteSpace=wrap;overflow=hidden;fontSize=20;fontStyle=1" vertex="1" parent="1">
          <mxGeometry x="34" y="500" width="282" height="30" as="geometry" />
        </mxCell>
      </root>
    </mxGraphModel>
  </diagram>
</mxfile>
